# xmcd
#
# Track frame offsets: 
#        150
#        16433
#        33069
#        51374
#        67415
#        83944
#        100634
#        115552
#        134083
#        149577
#        166228
#        181282
#        196584
#        210879
#        225969
#        242245
#        257638
#        269125
#        281280
#        298797
#
# Disc length: 4212 seconds
#
# Revision: 1
# Processed by: cddbd v1.5.2PL0 Copyright (c) Steve Scherf et al.
# Submitted via: ExactAudioCopy v1.3
#
DISCID=22107214
DTITLE=Fred Sonnenschein and Seine Freunde - 40 Jahre Hamster Hits
DYEAR=2013
DGENRE=Folk
TTITLE0=Alles Gute zum Geburtstag
TTITLE1=Bum Da Da, Bum Da Da
TTITLE2=Unsere Tanta Anna
TTITLE3=Die dumme Liebe
TTITLE4=Adelheid, schenk uns einen Gartenzwerg
TTITLE5=Oh, Leo
TTITLE6=Die Kinder von Napoli
TTITLE7=Oh, Susi (mit den Hamstern)
TTITLE8=Circus Dudila
TTITLE9=Nicht immer, aber...
TTITLE10=Der Sommer ist da
TTITLE11=Villa Arriba Villa Abacho (Die spanische Party)
TTITLE12=Himbeereiszeit
TTITLE13=Mein Salzgebäck
TTITLE14=Katharina
TTITLE15=Vielen Dank für die Krümel im Schrank
TTITLE16=Rio De Janeiro
TTITLE17=Komm Anuschka
TTITLE18=Tiritom-Bam-Bam (Englische Version)
TTITLE19=Happy Birthday My Darling (Englische Version)
EXTD=
EXTT0=
EXTT1=
EXTT2=
EXTT3=
EXTT4=
EXTT5=
EXTT6=
EXTT7=
EXTT8=
EXTT9=
EXTT10=
EXTT11=
EXTT12=
EXTT13=
EXTT14=
EXTT15=
EXTT16=
EXTT17=
EXTT18=
EXTT19=
PLAYORDER=
